<svg xmlns="http://www.w3.org/2000/svg" viewBox="0 0 500.7 473.72"><defs><style>.cls-1{fill:#73b0f2;}.cls-2{fill:#001c3a;}.cls-3{fill:#007bff;}</style></defs><g id="Layer_2" data-name="Layer 2"><g id="Logo_Name_Vertical" data-name="Logo Name Vertical"><g id="Layer_7" data-name="Layer 7"><path style="fill:#73b0f2;" d="M394.26,0C377,0,363,14.25,363,31.82V263.75c1.74-.37,2.37.27,2.9,1.91,2.79,8.42,5.57,16.84,8.44,25.24.67,1.9.4,2.68-1.39,3.43a34.8,34.8,0,0,0-9.95,6.22v7.51a32.62,32.62,0,0,0,1,7.9,28.17,28.17,0,0,1,14.4-12.67l8.51,24.88-21.22-7.26a31.26,31.26,0,0,0,28.61,19c17.27,0,31.28-14.25,31.28-31.83V31.82C425.54,14.25,411.53,0,394.26,0Z"/><path style="fill:#73b0f2;" d="M374.33,290.9c-2.87-8.4-5.65-16.82-8.44-25.24-.53-1.64-1.16-2.28-2.9-1.91v36.8a34.8,34.8,0,0,1,9.95-6.22C374.73,293.58,375,292.8,374.33,290.9Z"/><path style="fill:#73b0f2;" d="M378.36,303.29A28.17,28.17,0,0,0,364,316a32.07,32.07,0,0,0,1.69,5l21.22,7.26Z"/><path style="fill:#001c3a;" d="M401.48,336.34a34,34,0,0,0-1.89-5.25q-12.31-35.26-23.82-70.58a21.13,21.13,0,0,0-5.2-8.47L253.43,132.84C214.16,92.89,175.16,53,135.22,12.74c-12-12.09-23.91-12.16-34.11-3-8.94,8.16-17,17.3-25.52,26s-7.42,24,2.48,34.17L315,311a10.41,10.41,0,0,0,4.13,3l75.33,26.2C398.09,341.37,401.81,339.37,401.48,336.34ZM177.5,68.05,360.64,254.4l-.27-.15c-6,.92-11.38,3.48-16.1,2.05s-7.82-7-11.62-10.9L163.88,73.67c-2.89-2.94-3-4.13-.51-6.65C170.11,60.6,169.93,60.35,177.5,68.05ZM100.75,80.42,85,64.44c-6-5.79-7-14.73-2.33-20.13a325.52,325.52,0,0,1,27.18-27.66c5-4.23,12.86-3.5,18.4,1.7,6,5.7,11.59,11.79,17.37,17.67,2.07,2.12.93,2.92-.25,4.12-6.54,6.73-13.28,13.58-20,20.44L105.5,80.83C103.75,82.61,102.73,82.5,100.75,80.42ZM121.33,95c-2.25,2.93-3.94,2.5-6.73-.33s-3.17-4.52-.49-7c6.5-6.47,12.78-13.23,19.25-19.8l19.63-20c1.84-1.87,3.09-2.07,4.94.42a10.14,10.14,0,0,0,2,2c2.41,1.84,2.25,3.15.41,5L128.06,88.11A76.47,76.47,0,0,0,121.33,95Zm197,192.16c-1.18,3.64-1.67,7.58-2.43,12.08l-3.35-3.4L129.06,109.1c-2.75-2.79-3.37-4.17-.5-6.66,6.86-6.47,6.61-6.72,14.43,1.23l172.57,175.6A7.32,7.32,0,0,1,318.33,287.13Zm.9-16.18q-87-89-174.41-177.46c-2.82-2.86-3.73-4.59-.78-6.94a81.29,81.29,0,0,0,8.12-8.27c1.21-1.23,2.2-1.38,3.5.24l90.62,92.21.24-.25,85.72,87.23a19.11,19.11,0,0,1,6.82,14.56c-.13,6,.26,5.55-5.52,5.62A18.57,18.57,0,0,1,319.23,271ZM355.58,314c-.69,1.7-1.25,2.41-3.26,1.66-8.39-3-16.79-5.85-25.18-8.78a13.7,13.7,0,0,1-1.75-.8c-.46-.47-.34-1.09-.22-1.71.87-5.25,1.84-10.41,2.68-15.7.29-1.73,1.3-1.75,2.67-1.64l11.55.93c6.87.54,7.72-.32,7.28-7.4-.28-3.73-.5-7.52-.92-11.33a2.27,2.27,0,0,1,1.84-3,2.75,2.75,0,0,1,.4,0c4.8-.65,9.52-1.5,14.22-2.49,1.82-.42,2.46.22,3,1.89,2.79,8.42,5.57,16.84,8.44,25.24.67,1.9.4,2.68-1.39,3.43A35.09,35.09,0,0,0,355.58,314Zm8.62,5.7a28.34,28.34,0,0,1,16.16-16.44l8.51,24.88Z"/><path style="fill:#007bff;" d="M103.5,80.83c-1.75,1.78-2.77,1.67-4.75-.41L83,64.44c-6-5.79-7-14.73-2.33-20.13a325.52,325.52,0,0,1,27.18-27.66A11.8,11.8,0,0,1,116,13.93,31.09,31.09,0,0,0,90.17,0h0C72.9,0,58.9,14.25,58.9,31.82V308.06c0,17.58,14,31.83,31.27,31.83h0c17.27,0,31.28-14.25,31.28-31.83V92.63c-.72.77-1.43,1.54-2.12,2.34-2.25,2.93-3.94,2.5-6.73-.33s-3.17-4.52-.49-7c3.15-3.14,6.24-6.34,9.34-9.55V62.56Z"/><path style="fill:#007bff;" d="M116,13.93a11.8,11.8,0,0,0-8.14,2.72A325.52,325.52,0,0,0,80.71,44.31C76,49.71,77.05,58.65,83,64.44l15.71,16c2,2.08,3,2.19,4.75.41l18-18.27V31.82A32,32,0,0,0,116,13.93Z"/><path style="fill:#007bff;" d="M112.11,87.62c-2.68,2.5-2.29,4.19.49,7s4.48,3.26,6.73.33c.69-.8,1.4-1.57,2.12-2.34V78.07C118.35,81.28,115.26,84.48,112.11,87.62Z"/></g><path style="fill:#001c3a;" d="M0,471.92V369H18.6l43.95,60.75a29.71,29.71,0,0,1,1.8,2.47c.7,1.05,1.35,2.08,2,3.08a13.15,13.15,0,0,1,1.2,2.4h.75V369H87v102.9H68.55l-44.1-61.2q-1.2-1.8-2.77-4.43c-1.05-1.75-1.78-3-2.18-3.67h-.75v69.3Z"/><path style="fill:#001c3a;" d="M143.25,473.72q-12.9,0-21.6-4.43a28.44,28.44,0,0,1-13.05-13.57q-4.35-9.15-4.35-23.25,0-14.25,4.35-23.33a28.51,28.51,0,0,1,13.05-13.5q8.7-4.42,21.6-4.42t21.67,4.42a28.6,28.6,0,0,1,13,13.5q4.35,9.08,4.35,23.33,0,14.1-4.35,23.25a28.53,28.53,0,0,1-13,13.57Q156.29,473.72,143.25,473.72Zm0-15q7.2,0,11.62-2.78a15.84,15.84,0,0,0,6.45-8.4,41.77,41.77,0,0,0,2-14v-2.1a41.83,41.83,0,0,0-2-14,15.84,15.84,0,0,0-6.45-8.4q-4.43-2.78-11.62-2.77T131.62,409a15.84,15.84,0,0,0-6.45,8.4,41.85,41.85,0,0,0-2,14v2.1a41.79,41.79,0,0,0,2,14,15.84,15.84,0,0,0,6.45,8.4Q136,458.72,143.25,458.72Z"/><path style="fill:#001c3a;" d="M218.7,473.72q-7.35,0-11.55-2.93a15.78,15.78,0,0,1-5.93-7.5,26.34,26.34,0,0,1-1.72-9.37V408h-9.45V393H200l3.3-22H217.8v22h13.65v15H217.8v44.1a6.76,6.76,0,0,0,1.65,4.87,6.55,6.55,0,0,0,5,1.73h7v12.6a27.43,27.43,0,0,1-3.68,1.12c-1.45.35-3,.65-4.57.9A29.27,29.27,0,0,1,218.7,473.72Z"/><path style="fill:#001c3a;" d="M265.2,473.72a40.61,40.61,0,0,1-7.58-.83,27.08,27.08,0,0,1-8.25-3.07,17.46,17.46,0,0,1-6.52-6.68q-2.55-4.42-2.55-11.62,0-8.1,3.6-13.43a24.46,24.46,0,0,1,10.12-8.4,54.32,54.32,0,0,1,15.6-4.35,143.46,143.46,0,0,1,19.88-1.27v-6.45a16.87,16.87,0,0,0-1.05-6.15,8.35,8.35,0,0,0-3.83-4.28q-2.78-1.57-8.32-1.57a22.65,22.65,0,0,0-8.7,1.35,9.1,9.1,0,0,0-4.35,3.3,7.62,7.62,0,0,0-1.2,4.05v2.1h-17.7a7.63,7.63,0,0,1-.15-1.5v-1.8a17.9,17.9,0,0,1,4.05-11.7,25.35,25.35,0,0,1,11.25-7.58,48.5,48.5,0,0,1,16.65-2.62q10.8,0,17.77,3a22.11,22.11,0,0,1,10.43,8.55,25.08,25.08,0,0,1,3.45,13.5v37.2a4.67,4.67,0,0,0,1.65,4,6,6,0,0,0,3.6,1.2h4.8v12.6c-1,.4-2.45.87-4.35,1.42a25.71,25.71,0,0,1-7.05.83,18.09,18.09,0,0,1-7-1.28,13.75,13.75,0,0,1-5.17-3.67,14.19,14.19,0,0,1-3-5.7h-.9a29.75,29.75,0,0,1-6.08,5.62,27.27,27.27,0,0,1-8.25,3.83A39.65,39.65,0,0,1,265.2,473.72Zm5.55-15a22.29,22.29,0,0,0,8-1.35,15.94,15.94,0,0,0,5.85-3.75,16.5,16.5,0,0,0,3.6-5.85,21.47,21.47,0,0,0,1.28-7.5v-3.6a102.63,102.63,0,0,0-15.23,1.05,26.32,26.32,0,0,0-11.1,3.9,9.26,9.26,0,0,0-4.12,8.1,8.66,8.66,0,0,0,1.27,4.72,8.29,8.29,0,0,0,3.9,3.15A16.62,16.62,0,0,0,270.75,458.72Z"/><path style="fill:#001c3a;" d="M330,471.92V369h19.5v47.7L395.1,369H419l-39.9,41.7,40.65,61.2H396.6l-30.75-47.55-16.35,14.4v33.15Z"/><path style="fill:#001c3a;" d="M461.7,473.72q-12.9,0-21.6-4.43a28.44,28.44,0,0,1-13.05-13.57q-4.35-9.15-4.35-23.25,0-14.25,4.35-23.33a28.51,28.51,0,0,1,13.05-13.5q8.7-4.42,21.6-4.42t21.67,4.42a28.6,28.6,0,0,1,13,13.5q4.35,9.08,4.35,23.33,0,14.1-4.35,23.25a28.53,28.53,0,0,1-13,13.57Q474.75,473.72,461.7,473.72Zm0-15q7.2,0,11.62-2.78a15.84,15.84,0,0,0,6.45-8.4,41.77,41.77,0,0,0,2-14v-2.1a41.83,41.83,0,0,0-2-14,15.84,15.84,0,0,0-6.45-8.4q-4.43-2.78-11.62-2.77T450.07,409a15.84,15.84,0,0,0-6.45,8.4,41.85,41.85,0,0,0-2,14v2.1a41.79,41.79,0,0,0,2,14,15.84,15.84,0,0,0,6.45,8.4Q454.5,458.72,461.7,458.72Z"/></g></g></svg>