<svg xmlns="http://www.w3.org/2000/svg" viewBox="0 0 551 502.9"><defs></defs><g id="Layer_2" data-name="Layer 2"><g id="Layer_2-2" data-name="Layer 2"><path style="fill:#73b0f2;" d="M504,0a47,47,0,0,0-47,47V389.55c2.62-.55,3.56.41,4.37,2.82,4.18,12.44,8.36,24.88,12.68,37.28,1,2.81.6,4-2.1,5.06A53,53,0,0,0,457,443.9V455a47.15,47.15,0,0,0,1.46,11.66A42.1,42.1,0,0,1,480.1,448l12.79,36.75L461,474a47,47,0,0,0,90-19V47A47,47,0,0,0,504,0Z"/><path style="fill:#73b0f2;" d="M474.05,429.65c-4.32-12.4-8.5-24.84-12.68-37.28-.81-2.41-1.75-3.37-4.37-2.82V443.9A53,53,0,0,1,472,434.71C474.65,433.6,475.05,432.46,474.05,429.65Z"/><path style="fill:#73b0f2;" d="M480.1,448a42.1,42.1,0,0,0-21.64,18.71A45.43,45.43,0,0,0,461,474l31.89,10.73Z"/><g id="Layer_5" data-name="Layer 5"><path style="fill:#001c3a;" d="M511.85,496.76A50.87,50.87,0,0,0,509,489q-18.51-52.1-35.8-104.24a31.21,31.21,0,0,0-7.81-12.52l-176-176c-59-59-117.64-118-177.66-177.39C93.66,1,75.76.86,60.43,14.4,47,26.46,34.88,40,22.09,52.74s-11.16,35.39,3.72,50.47L381.87,459.27a15.57,15.57,0,0,0,6.2,4.38l113.21,38.7C506.75,504.19,512.34,501.24,511.85,496.76ZM175.23,100.51,450.47,375.75l-.41-.23c-9,1.36-17.1,5.14-24.2,3s-11.75-10.38-17.46-16.1L154.76,108.81c-4.34-4.34-4.48-6.11-.75-9.83C164.13,89.5,163.85,89.13,175.23,100.51ZM59.9,118.78C52.06,111,44,102.9,36.29,95.17c-9-8.54-10.57-21.75-3.51-29.73A486,486,0,0,1,73.63,24.59c7.46-6.24,19.32-5.17,27.65,2.52,9,8.41,17.42,17.41,26.1,26.09,3.12,3.13,1.4,4.31-.37,6.08-9.84,10-20,20.07-30.08,30.19L67,119.38C64.39,122,62.87,121.84,59.9,118.78Zm30.92,21.48c-3.39,4.33-5.93,3.7-10.11-.48S76,133.11,80,129.41c9.78-9.56,19.22-19.54,28.94-29.25l29.49-29.5c2.77-2.77,4.66-3.06,7.43.62a15.71,15.71,0,0,0,3,3c3.63,2.72,3.39,4.65.62,7.42l-48.46,48.47A112.39,112.39,0,0,0,90.82,140.26ZM386.89,424.08c-1.79,5.38-2.51,11.19-3.67,17.85l-5-5L102.44,161.14c-4.13-4.13-5.07-6.16-.76-9.83,10.31-9.57,9.94-9.94,21.69,1.81L382.72,412.47C386.5,415.32,388.22,420.11,386.89,424.08Zm1.34-23.89Q257.54,268.77,126.12,138.08c-4.23-4.23-5.6-6.78-1.17-10.25a120.19,120.19,0,0,0,12.2-12.21c1.82-1.81,3.32-2,5.26.36L278.6,252.16l.36-.36L407.79,380.63c6.56,5.55,10.41,13.61,10.25,21.51-.2,8.87.39,8.19-8.3,8.3C401.84,410.59,393.78,406.75,388.23,400.19Zm54.63,63.61c-1,2.52-1.88,3.57-4.89,2.46-12.61-4.43-25.25-8.63-37.84-13a18.21,18.21,0,0,1-2.64-1.18c-.68-.69-.51-1.6-.34-2.52,1.31-7.76,2.78-15.37,4-23.19.44-2.56,1.95-2.59,4-2.43l17.36,1.38c10.32.79,11.59-.48,10.94-10.93-.43-5.51-.76-11.11-1.38-16.73a3.33,3.33,0,0,1,2.77-4.4,3,3,0,0,1,.6,0c7.21-1,14.29-2.22,21.36-3.68,2.74-.62,3.69.33,4.52,2.79,4.18,12.44,8.36,24.88,12.68,37.28,1,2.81.6,4-2.1,5.06A52.38,52.38,0,0,0,442.86,463.8Zm13,8.43A42.16,42.16,0,0,1,480.1,448l12.79,36.75Z"/></g><path style="fill:#007bff;" d="M67,119.38c-2.64,2.63-4.16,2.46-7.13-.6C52.06,111,44,102.9,36.29,95.17c-9-8.54-10.57-21.75-3.51-29.73A486,486,0,0,1,73.63,24.59a18,18,0,0,1,12.23-4A46.92,46.92,0,0,0,47,0h0A47,47,0,0,0,0,47V455a47,47,0,0,0,47,47h0a47,47,0,0,0,47-47V136.81c-1.08,1.13-2.15,2.28-3.18,3.45-3.39,4.33-5.93,3.7-10.11-.48S76,133.11,80,129.41c4.74-4.63,9.39-9.36,14-14.11V92.4Z"/><path style="fill:#007bff;" d="M85.86,20.57a18,18,0,0,0-12.23,4A486,486,0,0,0,32.78,65.44c-7.06,8-5.5,21.19,3.51,29.73C44,102.9,52.06,111,59.9,118.78c3,3.06,4.49,3.23,7.13.6l27-27V47A46.72,46.72,0,0,0,85.86,20.57Z"/><path style="fill:#007bff;" d="M80,129.41c-4,3.7-3.43,6.19.75,10.37s6.72,4.81,10.11.48c1-1.17,2.1-2.32,3.18-3.45V115.3C89.35,120.05,84.7,124.78,80,129.41Z"/></g></g></svg>