<svg xmlns="http://www.w3.org/2000/svg" viewBox="0 0 717.98 181.31"><g id="Layer_2" data-name="Layer 2"><g id="Logo_Name_Horizontal" data-name="Logo Name Horizontal"><g id="Layer_9" data-name="Layer 9"><path style="fill:#73b0f2;" d="M162.68,0c-8.38,0-15.17,7.59-15.17,16.94v123.5c.84-.19,1.15.15,1.41,1,1.35,4.48,2.7,9,4.09,13.44.33,1,.2,1.43-.67,1.83a16.68,16.68,0,0,0-4.83,3.31v4a18.64,18.64,0,0,0,.47,4.2,14.21,14.21,0,0,1,7-6.74l4.12,13.25-10.29-3.87c2.35,6,7.68,10.1,13.88,10.1,8.38,0,15.17-7.58,15.17-16.94V16.94C177.85,7.59,171.06,0,162.68,0Z"/><path style="fill:#73b0f2;" d="M153,154.9c-1.39-4.47-2.74-9-4.09-13.44-.26-.87-.57-1.21-1.41-1V160a16.68,16.68,0,0,1,4.83-3.31C153.21,156.33,153.34,155.91,153,154.9Z"/><path style="fill:#73b0f2;" d="M155,161.5a14.21,14.21,0,0,0-7,6.74,19.26,19.26,0,0,0,.82,2.64l10.29,3.87Z"/><path style="fill:#001c3a;" d="M166.18,179.09a20.19,20.19,0,0,0-.91-2.79q-6-18.78-11.56-37.58a11.62,11.62,0,0,0-2.52-4.51L94.37,70.74C75.32,49.46,56.4,28.2,37,6.78,31.2.35,25.43.31,20.48,5.19,16.14,9.54,12.23,14.4,8.1,19S4.5,31.77,9.3,37.21L124.23,165.58a5.13,5.13,0,0,0,2,1.58l36.54,14C164.54,181.77,166.34,180.71,166.18,179.09ZM57.53,36.24l88.84,99.23-.13-.09c-2.9.5-5.52,1.86-7.81,1.1s-3.79-3.75-5.64-5.81L50.92,39.23c-1.4-1.56-1.44-2.2-.24-3.54C54,32.27,53.86,32.14,57.53,36.24ZM20.3,42.82l-7.62-8.51c-2.91-3.08-3.41-7.84-1.13-10.72A165.3,165.3,0,0,1,24.74,8.87c2.4-2.26,6.23-1.87,8.92.9,2.89,3,5.62,6.28,8.43,9.41,1,1.13.45,1.56-.12,2.19-3.18,3.59-6.45,7.24-9.71,10.89L22.6,43C21.76,44,21.26,43.93,20.3,42.82Zm10,7.75c-1.09,1.56-1.91,1.33-3.26-.18s-1.54-2.4-.24-3.73c3.16-3.45,6.2-7,9.34-10.55l9.52-10.63c.89-1,1.5-1.11,2.4.22a5.4,5.4,0,0,0,1,1.07c1.18,1,1.1,1.68.2,2.68q-7.81,8.73-15.64,17.47A39.21,39.21,0,0,0,30.28,50.57Zm95.57,102.32a49.31,49.31,0,0,0-1.18,6.44L123,157.51,34,58.09c-1.33-1.48-1.63-2.21-.24-3.54,3.33-3.45,3.21-3.58,7,.65l83.71,93.51A4.11,4.11,0,0,1,125.85,152.89Zm.43-8.61Q84.1,96.9,41.68,49.78c-1.37-1.52-1.81-2.44-.38-3.69a40.49,40.49,0,0,0,3.94-4.41c.59-.65,1.07-.73,1.7.13l44,49.1.11-.13,41.59,46.45a10.55,10.55,0,0,1,3.3,7.75c-.06,3.2.13,3-2.68,3A8.77,8.77,0,0,1,126.28,144.28Zm17.64,22.93c-.34.91-.61,1.29-1.58.89-4.07-1.6-8.15-3.11-12.22-4.68a5.16,5.16,0,0,1-.85-.42,1.06,1.06,0,0,1-.11-.91c.43-2.8.9-5.54,1.31-8.36.14-.92.63-.93,1.29-.88l5.6.5c3.34.29,3.75-.17,3.53-3.94-.13-2-.24-4-.44-6a1.21,1.21,0,0,1,.89-1.59h.2c2.32-.34,4.61-.8,6.89-1.33.89-.22,1.19.12,1.46,1,1.35,4.48,2.7,9,4.09,13.44.33,1,.2,1.43-.67,1.83A18,18,0,0,0,143.92,167.21Zm4.18,3a14.49,14.49,0,0,1,7.84-8.75l4.12,13.25Z"/><path style="fill:#007bff;" d="M21.63,43c-.84,1-1.34.89-2.3-.22l-7.62-8.51C8.8,31.23,8.3,26.47,10.58,23.59A165.3,165.3,0,0,1,23.77,8.87a5.39,5.39,0,0,1,3.94-1.45A14.77,14.77,0,0,0,15.17,0h0C6.79,0,0,7.59,0,16.94V164C0,173.4,6.79,181,15.17,181h0c8.38,0,15.17-7.58,15.17-16.94V49.32c-.35.41-.69.82-1,1.25-1.09,1.56-1.91,1.33-3.26-.18s-1.54-2.4-.24-3.73c1.53-1.67,3-3.38,4.53-5.09V33.31Q26,38.17,21.63,43Z"/><path style="fill:#007bff;" d="M27.71,7.42a5.39,5.39,0,0,0-3.94,1.45A165.3,165.3,0,0,0,10.58,23.59C8.3,26.47,8.8,31.23,11.71,34.31l7.62,8.51c1,1.11,1.46,1.17,2.3.22q4.36-4.87,8.71-9.73V16.94A18.21,18.21,0,0,0,27.71,7.42Z"/><path style="fill:#007bff;" d="M25.81,46.66c-1.3,1.33-1.11,2.23.24,3.73s2.17,1.74,3.26.18c.34-.43.68-.84,1-1.25V41.57C28.84,43.28,27.34,45,25.81,46.66Z"/></g><path style="fill:#001c3a;" d="M217.28,144.48V41.58h18.6l43.95,60.75a30.14,30.14,0,0,1,1.8,2.48c.7,1,1.35,2.07,1.95,3.07a13.15,13.15,0,0,1,1.2,2.4h.75V41.58h18.75v102.9H285.83l-44.1-61.2q-1.2-1.8-2.77-4.42c-1.05-1.75-1.78-3-2.18-3.68H236v69.3Z"/><path style="fill:#001c3a;" d="M360.53,146.28q-12.9,0-21.6-4.42a28.47,28.47,0,0,1-13.05-13.58q-4.35-9.15-4.35-23.25t4.35-23.32a28.51,28.51,0,0,1,13.05-13.5q8.7-4.42,21.6-4.43,13.05,0,21.67,4.43a28.6,28.6,0,0,1,13,13.5q4.35,9.08,4.35,23.32t-4.35,23.25a28.56,28.56,0,0,1-13,13.58Q373.58,146.29,360.53,146.28Zm0-15q7.2,0,11.62-2.77a15.84,15.84,0,0,0,6.45-8.4,41.83,41.83,0,0,0,2-14V104a41.77,41.77,0,0,0-2-14,15.84,15.84,0,0,0-6.45-8.4q-4.42-2.78-11.62-2.78T348.9,81.56a15.84,15.84,0,0,0-6.45,8.4,41.79,41.79,0,0,0-2,14v2.1a41.85,41.85,0,0,0,2,14,15.84,15.84,0,0,0,6.45,8.4Q353.33,131.29,360.53,131.28Z"/><path style="fill:#001c3a;" d="M436,146.28q-7.35,0-11.55-2.92a15.78,15.78,0,0,1-5.93-7.5,26.39,26.39,0,0,1-1.72-9.38V80.58h-9.45v-15h9.9l3.3-22h14.55v22h13.65v15H435.08v44.1a6.78,6.78,0,0,0,1.65,4.88,6.54,6.54,0,0,0,4.95,1.72h7.05v12.6a27.31,27.31,0,0,1-3.68,1.13c-1.45.35-3,.65-4.57.9A29.2,29.2,0,0,1,436,146.28Z"/><path style="fill:#001c3a;" d="M482.48,146.28a40.52,40.52,0,0,1-7.58-.82,27.1,27.1,0,0,1-8.25-3.08,17.43,17.43,0,0,1-6.52-6.67q-2.55-4.43-2.55-11.63,0-8.1,3.6-13.42a24.46,24.46,0,0,1,10.12-8.4,54.32,54.32,0,0,1,15.6-4.35,143.38,143.38,0,0,1,19.88-1.28V90.18a16.87,16.87,0,0,0-1-6.15,8.33,8.33,0,0,0-3.83-4.27q-2.77-1.58-8.32-1.58a22.65,22.65,0,0,0-8.7,1.35,9.1,9.1,0,0,0-4.35,3.3,7.62,7.62,0,0,0-1.2,4V89h-17.7a7.63,7.63,0,0,1-.15-1.5v-1.8a17.9,17.9,0,0,1,4-11.7,25.34,25.34,0,0,1,11.25-7.57,48.49,48.49,0,0,1,16.65-2.63q10.8,0,17.77,3a22.11,22.11,0,0,1,10.43,8.55,25.08,25.08,0,0,1,3.45,13.5V126a4.67,4.67,0,0,0,1.65,4.05,6,6,0,0,0,3.6,1.2h4.8v12.6c-1,.4-2.45.88-4.35,1.43a25.75,25.75,0,0,1-7,.82,18.09,18.09,0,0,1-7-1.27,13.77,13.77,0,0,1-5.17-3.68,14.19,14.19,0,0,1-3-5.7h-.9a29.79,29.79,0,0,1-6.08,5.63,27.26,27.26,0,0,1-8.25,3.82A39.65,39.65,0,0,1,482.48,146.28Zm5.55-15a22.29,22.29,0,0,0,8-1.35,15.94,15.94,0,0,0,5.85-3.75,16.5,16.5,0,0,0,3.6-5.85,21.47,21.47,0,0,0,1.28-7.5v-3.6a102.63,102.63,0,0,0-15.23,1,26.32,26.32,0,0,0-11.1,3.9,9.26,9.26,0,0,0-4.12,8.1A8.69,8.69,0,0,0,477.6,127a8.29,8.29,0,0,0,3.9,3.15A16.63,16.63,0,0,0,488,131.28Z"/><path style="fill:#001c3a;" d="M547.28,144.48V41.58h19.5v47.7l45.6-47.7h23.85l-39.9,41.7L637,144.48h-23.1L583.13,96.93l-16.35,14.4v33.15Z"/><path style="fill:#001c3a;" d="M679,146.28q-12.9,0-21.6-4.42a28.47,28.47,0,0,1-13-13.58Q640,119.13,640,105t4.35-23.32a28.51,28.51,0,0,1,13-13.5q8.7-4.42,21.6-4.43t21.67,4.43a28.6,28.6,0,0,1,13,13.5Q718,90.79,718,105t-4.35,23.25a28.56,28.56,0,0,1-13,13.58Q692,146.29,679,146.28Zm0-15q7.2,0,11.62-2.77a15.84,15.84,0,0,0,6.45-8.4,41.83,41.83,0,0,0,2-14V104a41.77,41.77,0,0,0-2-14,15.84,15.84,0,0,0-6.45-8.4q-4.43-2.78-11.62-2.78t-11.63,2.78A15.84,15.84,0,0,0,660.9,90a41.79,41.79,0,0,0-2,14v2.1a41.85,41.85,0,0,0,2,14,15.84,15.84,0,0,0,6.45,8.4Q671.77,131.29,679,131.28Z"/></g></g></svg>